<svg xmlns="http://www.w3.org/2000/svg" width="100" height="38"><g fill="none" fill-rule="evenodd"><path fill="#4D4C4E" fill-rule="nonzero" d="M84.773 15.641v-4.288h4.8c1.396 0 3.062.359 3.062 2.075v.068c0 1.423-1.146 2.145-3.404 2.145h-4.458Zm5.854 9.595h-5.854v-4.492h5.683c2.326 0 3.505.744 3.505 2.212v.068c0 1.468-1.121 2.212-3.334 2.212Zm5.275-7.552c1.807-1.224 2.687-2.89 2.687-5.072v-.068c0-1.731-.57-3.142-1.743-4.315-1.452-1.452-3.697-2.219-6.491-2.219H78.92l.001 24.568h11.705c5.903 0 9.289-2.518 9.289-6.908v-.067c0-2.823-1.244-4.672-4.014-5.919Zm-24.963.61v.068c0 4.03-2.735 6.739-6.806 6.739h-3.676V11.489h3.676c4.07 0 6.806 2.734 6.806 6.805M64.133 6.01H54.47l.006 24.57 9.658-.002c3.678 0 7.013-1.26 9.396-3.545 2.346-2.251 3.636-5.355 3.636-8.74v-.068c0-7.077-5.481-12.215-13.032-12.215"/><path fill="#444443" d="M49.1 5.971a2.995 2.995 0 0 1 2.996 2.994v21.618h-5.99V5.97H49.1Z"/><path fill="#195974" fill-rule="nonzero" d="M29.258 14.89c-.858-.036-1.01.482.277.754 1.818.384.58-.718-.277-.754m-2.69-2.02c-2.577-.834-.881 1.229.345 1.365 1.226.136 1.481-.772-.345-1.364m-7.589-1.866c-.751.394.593 2.14 4.032 2.233 3.44.095-.994-3.828-4.032-2.233m6.609 25.26c1.081-2.012 3.436-4.946 8.47-10.86 7.529-8.847-14.78-5.876-18.604-12.57-3.148-5.517 8.57-9.482 15.65-12.55 4.603 3.033 7.943 7.94 8.803 13.824 1.473 10.054-4.803 19.45-14.32 22.156M21.11 22.007c-3.16 5.115 6.99 5.192 2.294 14.75-.138.023-.274.05-.415.07C12.044 38.429 1.873 30.855.27 19.91A19.965 19.965 0 0 1 3.565 5.694C3.054 17.245 24.06 17.231 21.11 22.007"/><path fill="#195974" fill-rule="nonzero" d="M29.232 14.935c-.857-.035-1.01.482.276.754 1.816.384.58-.717-.276-.753m-2.688-2.018c-2.575-.833-.88 1.227.345 1.364 1.224.135 1.48-.772-.345-1.364m-7.582-1.864c-.75.394.593 2.137 4.028 2.23 3.437.096-.993-3.824-4.028-2.23m6.603 25.237c1.08-2.01 3.433-4.94 8.463-10.85 7.521-8.838-14.768-5.87-18.588-12.56-3.145-5.51 8.562-9.472 15.636-12.538 4.6 3.031 7.936 7.933 8.795 13.813 1.471 10.044-4.798 19.432-14.306 22.135M21.09 22.046c-3.157 5.11 6.983 5.187 2.292 14.737-.138.023-.274.05-.415.07C12.033 38.453 1.871 30.885.27 19.951A19.947 19.947 0 0 1 3.561 5.748c-.51 11.54 20.478 11.527 17.53 16.298"/></g></svg>